<?xml version="1.0" encoding="UTF-8" standalone="no"?>
<!-- Created with Inkscape (http://www.inkscape.org/) -->

<svg
   width="64pt"
   height="64pt"
   viewBox="0 0 22.577778 22.577778"
   version="1.1"
   id="svg831"
   inkscape:version="1.1.1 (3bf5ae0d25, 2021-09-20)"
   sodipodi:docname="Export - Unblash - 64px.svg"
   inkscape:export-filename="C:\Users\User\Desktop\CARLOS PROJECT\6. JUNI 2\DONE\SOLID\13 - Submarine.png"
   inkscape:export-xdpi="576"
   inkscape:export-ydpi="576"
   xmlns:inkscape="http://www.inkscape.org/namespaces/inkscape"
   xmlns:sodipodi="http://sodipodi.sourceforge.net/DTD/sodipodi-0.dtd"
   xmlns="http://www.w3.org/2000/svg"
   xmlns:svg="http://www.w3.org/2000/svg"
   xmlns:rdf="http://www.w3.org/1999/02/22-rdf-syntax-ns#"
   xmlns:cc="http://creativecommons.org/ns#"
   xmlns:dc="http://purl.org/dc/elements/1.1/">
  <defs
     id="defs825">
    <pattern
       id="EMFhbasepattern"
       patternUnits="userSpaceOnUse"
       width="6"
       height="6"
       x="0"
       y="0" />
    <pattern
       id="EMFhbasepattern-9"
       patternUnits="userSpaceOnUse"
       width="6"
       height="6"
       x="0"
       y="0" />
    <pattern
       id="EMFhbasepattern-0"
       patternUnits="userSpaceOnUse"
       width="6"
       height="6"
       x="0"
       y="0" />
    <pattern
       id="EMFhbasepattern-7"
       patternUnits="userSpaceOnUse"
       width="6"
       height="6"
       x="0"
       y="0" />
    <pattern
       id="EMFhbasepattern-2"
       patternUnits="userSpaceOnUse"
       width="6"
       height="6"
       x="0"
       y="0" />
    <pattern
       id="EMFhbasepattern-98"
       patternUnits="userSpaceOnUse"
       width="6"
       height="6"
       x="0"
       y="0" />
    <pattern
       id="EMFhbasepattern-6"
       patternUnits="userSpaceOnUse"
       width="6"
       height="6"
       x="0"
       y="0" />
    <pattern
       id="EMFhbasepattern-01"
       patternUnits="userSpaceOnUse"
       width="6"
       height="6"
       x="0"
       y="0" />
    <pattern
       id="EMFhbasepattern-07"
       patternUnits="userSpaceOnUse"
       width="6"
       height="6"
       x="0"
       y="0" />
    <pattern
       id="EMFhbasepattern-8"
       patternUnits="userSpaceOnUse"
       width="6"
       height="6"
       x="0"
       y="0" />
    <pattern
       id="EMFhbasepattern-4"
       patternUnits="userSpaceOnUse"
       width="6"
       height="6"
       x="0"
       y="0" />
    <pattern
       id="EMFhbasepattern-40"
       patternUnits="userSpaceOnUse"
       width="6"
       height="6"
       x="0"
       y="0" />
    <pattern
       id="EMFhbasepattern-08"
       patternUnits="userSpaceOnUse"
       width="6"
       height="6"
       x="0"
       y="0" />
    <pattern
       id="EMFhbasepattern-04"
       patternUnits="userSpaceOnUse"
       width="6"
       height="6"
       x="0"
       y="0" />
    <pattern
       id="EMFhbasepattern-014"
       patternUnits="userSpaceOnUse"
       width="6"
       height="6"
       x="0"
       y="0" />
    <pattern
       id="EMFhbasepattern-27"
       patternUnits="userSpaceOnUse"
       width="6"
       height="6"
       x="0"
       y="0" />
    <pattern
       id="EMFhbasepattern-09"
       patternUnits="userSpaceOnUse"
       width="6"
       height="6"
       x="0"
       y="0" />
    <pattern
       id="EMFhbasepattern-5"
       patternUnits="userSpaceOnUse"
       width="6"
       height="6"
       x="0"
       y="0" />
    <pattern
       id="EMFhbasepattern-018"
       patternUnits="userSpaceOnUse"
       width="6"
       height="6"
       x="0"
       y="0" />
  </defs>
  <sodipodi:namedview
     id="base"
     pagecolor="#ffffff"
     bordercolor="#666666"
     borderopacity="1.0"
     inkscape:pageopacity="0.0"
     inkscape:pageshadow="2"
     inkscape:zoom="6.4882572"
     inkscape:cx="35.140407"
     inkscape:cy="45.543817"
     inkscape:document-units="pt"
     inkscape:current-layer="layer1"
     showgrid="false"
     units="pt"
     inkscape:window-width="1920"
     inkscape:window-height="1001"
     inkscape:window-x="-9"
     inkscape:window-y="-9"
     inkscape:window-maximized="1"
     inkscape:pagecheckerboard="true"
     inkscape:showpageshadow="false"
     inkscape:object-paths="true"
     inkscape:snap-intersection-paths="true"
     inkscape:snap-smooth-nodes="true"
     inkscape:snap-midpoints="true"
     showguides="true"
     inkscape:snap-bbox="true"
     inkscape:bbox-nodes="true"
     inkscape:snap-nodes="false"
     inkscape:snap-global="true"
     inkscape:snap-others="false">
    <inkscape:grid
       type="xygrid"
       id="grid1378" />
    <sodipodi:guide
       position="0.97013831,21.607643"
       orientation="78.000048,0"
       id="guide1380"
       inkscape:locked="false" />
    <sodipodi:guide
       position="0.97013831,0.97013129"
       orientation="0,78.000005"
       id="guide1382"
       inkscape:locked="false" />
    <sodipodi:guide
       position="21.607639,0.97013129"
       orientation="-78.000048,0"
       id="guide1384"
       inkscape:locked="false" />
    <sodipodi:guide
       position="21.607639,21.607643"
       orientation="0,-78.000005"
       id="guide1386"
       inkscape:locked="false" />
  </sodipodi:namedview>
  <metadata
     id="metadata828">
    <rdf:RDF>
      <cc:Work
         rdf:about="">
        <dc:format>image/svg+xml</dc:format>
        <dc:type
           rdf:resource="http://purl.org/dc/dcmitype/StillImage" />
      </cc:Work>
    </rdf:RDF>
  </metadata>
  <g
     inkscape:label="Icon"
     inkscape:groupmode="layer"
     id="layer1"
     transform="translate(0,-274.42223)">
    <path
       id="path39694"
       style="color:#000000;display:inline;fill:#000000;stroke-width:1;stroke-linecap:round;stroke-linejoin:round;-inkscape-stroke:none"
       d="m 8.9700085,283.14371 c -0.3317894,-0.1399 -0.6438512,-0.23873 -0.9822703,-0.2462 -0.2629644,-0.005 -0.5456067,0.0551 -0.8604505,0.18561 l 1.0402778,-2.33836 0.6973839,0.18691 0.1708019,-0.63873 -0.5968394,-0.15919 0.043827,-0.0987 c 0.074448,-0.16693 -9.9e-4,-0.36259 -0.1682212,-0.43635 -0.045379,-0.0202 -0.09473,-0.0299 -0.1443753,-0.0283 l 6.27e-5,2e-5 c -0.1270667,0.004 -0.2406365,0.0803 -0.2919747,0.19659 l -0.6619352,1.48951 c -0.4710134,-0.10314 -0.9449242,-0.19135 -1.4186138,-0.28101 0.2038051,0.69232 0.1885955,1.41539 -0.00515,2.08184 l 0.679983,-0.12633 -1.1085979,2.49562 c -0.3412174,-0.11948 -0.7072938,-0.18561 -1.0886162,-0.18561 -1.8217394,0 -3.30516512,1.48406 -3.30516182,3.3058 -3.3e-6,1.82174 1.48342582,3.30517 3.30516182,3.30517 6.3170847,-0.002 10.8419407,-0.002 16.9138187,-0.002 0.182506,6.6e-4 0.330934,-0.14685 0.33129,-0.32934 6.61e-4,-0.18327 -0.148029,-0.33202 -0.33129,-0.3313 h -2.058637 c 0.802492,-0.60373 1.322583,-1.56388 1.322579,-2.64259 7e-6,-1.66137 -1.23377,-3.04145 -2.83272,-3.27164 -0.191859,0.26056 -0.500419,0.43119 -0.877207,0.43119 h -0.714788 -0.568479 c -0.967642,0.57756 -1.617779,1.63486 -1.617777,2.84045 -2e-6,1.07871 0.520548,2.03886 1.323224,2.64259 H 6.2578777 c 0.8026773,-0.60373 1.3232269,-1.56388 1.3232237,-2.64259 3.2e-6,-1.2061 -0.6507417,-2.26369 -1.619066,-2.84109 l 0.2932617,-0.66001 H 11.29361 c 0.203844,0 0.360938,-0.1457 0.360938,-0.3893 0,-0.24198 -0.195344,-0.44442 -0.43509,-0.50466 -0.889061,-0.23734 -1.5858742,-0.72784 -2.2494495,-1.00753 z m 0.788969,-2.99832 -0.3409568,1.27553 1.2748853,0.3416 c 0.352078,0.0943 0.726536,-0.11137 0.808244,-0.46664 0.0817,-0.35522 -0.114569,-0.71395 -0.46664,-0.80824 z m -4.9010256,0.65485 c -0.030954,0.0239 -0.063687,0.0673 -0.075412,0.10439 -0.21586,0.68337 -0.2005414,1.55765 0.00452,2.22429 0.021648,0.0704 0.1078344,0.0913 0.1005443,0.0967 l 0.1566216,-0.0291 c 0.3047491,-0.73981 0.3327166,-1.59203 0.00132,-2.36415 z m 11.3953391,2.94488 c -0.722267,0.0938 -1.398445,0.12831 -2.226215,0.12956 -0.306182,6.6e-4 -0.717379,0.0203 -1.089264,0.0877 -0.291206,0.0526 -0.551817,0.14403 -0.715432,0.24427 0.05991,0.13652 0.09346,0.2879 0.09346,0.44988 0,0.0906 -0.01148,0.17831 -0.03287,0.26234 0.06011,0.0768 0.152441,0.12696 0.26039,0.12696 h 4.23136 c 0.219127,0 0.389942,-0.17018 0.389942,-0.3893 v -0.1534 c 0,-0.27188 -0.09974,-0.46233 -0.255879,-0.59231 -0.200978,-0.15056 -0.407839,-0.19817 -0.655493,-0.16565 z m 1.568071,0.98096 c 1.50901,0.26558 2.718914,1.40876 3.087955,2.8772 l 0.452463,-0.12123 c 0.184194,-0.0486 0.289055,-0.24271 0.22881,-0.42345 -0.565783,-1.69122 -2.06949,-2.94977 -3.891649,-3.16337 0.121482,0.29702 0.123901,0.53531 0.122417,0.8308 z m -6.114608,2.7657 c 0.829764,0 1.4966,0.67006 1.4966,1.48629 0,0.46535 -0.216567,0.88188 -0.5543,1.15435 H 13.6107 c -0.219011,-0.48476 -0.34096,-1.02135 -0.34096,-1.58555 0,-0.63332 0.152917,-1.23315 0.424104,-1.76279 -0.04813,0.0292 -0.102935,0.0457 -0.159198,0.0476 h -2.311297 c -0.1815,-3.2e-4 -0.328648,-0.14721 -0.329357,-0.32871 -6.6e-4,-0.18251 0.14685,-0.33093 0.329357,-0.33129 h 2.311297 c 0.175632,9.9e-4 0.319836,0.13909 0.328067,0.31454 0.180958,-0.28775 0.399279,-0.54941 0.647111,-0.77989 h -1.966472 c -0.236313,0 -0.454583,-0.0836 -0.62584,-0.22301 h 7e-6 c -0.173138,0.13883 -0.389233,0.223 -0.623909,0.22301 H 7.5211601 l 0.7811744,2.91844 c 0.1557241,-0.55567 0.6686507,-0.96745 1.259418,-0.96745 z m -2.2984022,-1.32001 h 0.6600012 c 0.183263,-6.6e-4 0.332011,0.14803 0.331291,0.33129 -6.6e-4,0.18226 -0.149035,0.32942 -0.331291,0.32871 H 9.4083518 c -0.1812464,-6.6e-4 -0.3280044,-0.14746 -0.3287106,-0.32871 -6.599e-4,-0.18226 0.1464544,-0.33057 0.3287106,-0.33129 z m 7.7395502,0.31904 c 1.131325,0 2.055409,0.92474 2.055413,2.05606 -4e-6,1.13133 -0.924088,2.05348 -2.055413,2.05348 -1.131331,0 -2.056056,-0.92215 -2.056059,-2.05348 0,-0.82396 0.490714,-1.53793 1.194319,-1.86528 l 0.172089,0.64969 c -0.422775,0.23914 -0.706407,0.69234 -0.706407,1.21559 3e-6,0.77464 0.621418,1.39541 1.396058,1.39541 0.774638,0 1.395409,-0.62077 1.395411,-1.39541 0,-0.84715 -0.753497,-1.39473 -1.448907,-1.39473 l -0.172092,-0.64841 c 0.07414,-0.009 0.149351,-0.0128 0.225588,-0.0128 z m -12.296395,0.0896 -0.2719932,0.61167 c -0.091674,-0.0187 -0.1867012,-0.0291 -0.2842396,-0.0291 -0.774637,0 -1.3960548,0.61884 -1.396058,1.39348 3.2e-6,0.77464 0.621421,1.39541 1.396058,1.39541 0.7746372,0 1.3934777,-0.62077 1.3934809,-1.39541 -3.2e-6,-0.43925 -0.1995151,-0.82818 -0.5130487,-1.08282 l 0.2732801,-0.61423 c 0.5422968,0.37021 0.8997635,0.99311 0.8997701,1.69705 -6.6e-6,1.13133 -0.9221541,2.05605 -2.0534824,2.05605 -1.1313281,0 -2.0560563,-0.92472 -2.0560595,-2.05605 3.2e-6,-1.13132 0.9247314,-2.05348 2.0560595,-2.05348 0.1926677,0 0.3792171,0.0274 0.5562328,0.0773 z m 12.395006,1.14727 c 0.406245,0.0491 0.725738,0.39807 0.725744,0.81662 7e-6,0.45175 -0.37198,0.82629 -0.823711,0.82629 -0.451732,0 -0.825653,-0.37454 -0.825645,-0.82629 0,-0.24848 0.113524,-0.47241 0.290684,-0.62391 l 0.214629,0.81148 c 0.04688,0.17659 0.228337,0.28147 0.404765,0.23397 0.176594,-0.0469 0.281478,-0.22835 0.233965,-0.40477 z m -12.9074113,0.006 -0.3461147,0.77859 c -0.074015,0.16677 0.00132,0.36195 0.1682245,0.4357 0.1662478,0.0727 0.3600208,-0.002 0.4337694,-0.16821 l 0.3325814,-0.7483 c 0.1188302,0.1428 0.19078,0.32541 0.19078,0.52399 6.6e-6,0.45175 -0.3713366,0.8263 -0.8230681,0.8263 -0.4517313,0 -0.8256518,-0.37455 -0.8256452,-0.8263 0,-0.52659 0.452388,-0.82177 0.8694727,-0.82177 z m 5.2471435,0.58204 c -0.3806625,10e-4 -0.6722444,0.29354 -0.6722444,0.66198 0,0.36842 0.2915819,0.65999 0.6600014,0.65999 0.00816,-3e-4 0.016335,-3e-4 0.024486,0 l 2.1218028,0.16306 c 0.459545,0 0.823068,-0.36352 0.823068,-0.82305 0,-0.45819 -0.362859,-0.82123 -0.820491,-0.82376 z"
       sodipodi:nodetypes="cccccccccccccccccsscccccsccccsccsccssccccscccssccccscccscssssscccccccccscccsccccscccsccccccsscssssscsssscccccssscccssscssscsscccccccsccccccscccscccscc" />
  </g>
</svg>
