<?xml version="1.0" encoding="UTF-8" standalone="no"?>
<!-- Created with Inkscape (http://www.inkscape.org/) -->

<svg
   width="64pt"
   height="64pt"
   viewBox="0 0 22.577778 22.577778"
   version="1.1"
   id="svg831"
   inkscape:version="1.1.1 (3bf5ae0d25, 2021-09-20)"
   sodipodi:docname="Export - Unblash - 64px.svg"
   inkscape:export-filename="C:\Users\User\Desktop\CARLOS PROJECT\6. JUNI 2\DONE\SOLID\01 - Tanker.png"
   inkscape:export-xdpi="576"
   inkscape:export-ydpi="576"
   xmlns:inkscape="http://www.inkscape.org/namespaces/inkscape"
   xmlns:sodipodi="http://sodipodi.sourceforge.net/DTD/sodipodi-0.dtd"
   xmlns="http://www.w3.org/2000/svg"
   xmlns:svg="http://www.w3.org/2000/svg"
   xmlns:rdf="http://www.w3.org/1999/02/22-rdf-syntax-ns#"
   xmlns:cc="http://creativecommons.org/ns#"
   xmlns:dc="http://purl.org/dc/elements/1.1/">
  <defs
     id="defs825">
    <pattern
       id="EMFhbasepattern"
       patternUnits="userSpaceOnUse"
       width="6"
       height="6"
       x="0"
       y="0" />
    <pattern
       id="EMFhbasepattern-9"
       patternUnits="userSpaceOnUse"
       width="6"
       height="6"
       x="0"
       y="0" />
    <pattern
       id="EMFhbasepattern-0"
       patternUnits="userSpaceOnUse"
       width="6"
       height="6"
       x="0"
       y="0" />
    <pattern
       id="EMFhbasepattern-7"
       patternUnits="userSpaceOnUse"
       width="6"
       height="6"
       x="0"
       y="0" />
    <pattern
       id="EMFhbasepattern-2"
       patternUnits="userSpaceOnUse"
       width="6"
       height="6"
       x="0"
       y="0" />
    <pattern
       id="EMFhbasepattern-98"
       patternUnits="userSpaceOnUse"
       width="6"
       height="6"
       x="0"
       y="0" />
    <pattern
       id="EMFhbasepattern-6"
       patternUnits="userSpaceOnUse"
       width="6"
       height="6"
       x="0"
       y="0" />
    <pattern
       id="EMFhbasepattern-01"
       patternUnits="userSpaceOnUse"
       width="6"
       height="6"
       x="0"
       y="0" />
    <pattern
       id="EMFhbasepattern-07"
       patternUnits="userSpaceOnUse"
       width="6"
       height="6"
       x="0"
       y="0" />
    <pattern
       id="EMFhbasepattern-8"
       patternUnits="userSpaceOnUse"
       width="6"
       height="6"
       x="0"
       y="0" />
    <pattern
       id="EMFhbasepattern-4"
       patternUnits="userSpaceOnUse"
       width="6"
       height="6"
       x="0"
       y="0" />
    <pattern
       id="EMFhbasepattern-40"
       patternUnits="userSpaceOnUse"
       width="6"
       height="6"
       x="0"
       y="0" />
    <pattern
       id="EMFhbasepattern-08"
       patternUnits="userSpaceOnUse"
       width="6"
       height="6"
       x="0"
       y="0" />
    <pattern
       id="EMFhbasepattern-04"
       patternUnits="userSpaceOnUse"
       width="6"
       height="6"
       x="0"
       y="0" />
    <pattern
       id="EMFhbasepattern-014"
       patternUnits="userSpaceOnUse"
       width="6"
       height="6"
       x="0"
       y="0" />
    <pattern
       id="EMFhbasepattern-27"
       patternUnits="userSpaceOnUse"
       width="6"
       height="6"
       x="0"
       y="0" />
    <pattern
       id="EMFhbasepattern-09"
       patternUnits="userSpaceOnUse"
       width="6"
       height="6"
       x="0"
       y="0" />
    <pattern
       id="EMFhbasepattern-5"
       patternUnits="userSpaceOnUse"
       width="6"
       height="6"
       x="0"
       y="0" />
    <pattern
       id="EMFhbasepattern-018"
       patternUnits="userSpaceOnUse"
       width="6"
       height="6"
       x="0"
       y="0" />
  </defs>
  <sodipodi:namedview
     id="base"
     pagecolor="#ffffff"
     bordercolor="#666666"
     borderopacity="1.0"
     inkscape:pageopacity="0.0"
     inkscape:pageshadow="2"
     inkscape:zoom="9.1757813"
     inkscape:cx="33.239676"
     inkscape:cy="42.666666"
     inkscape:document-units="pt"
     inkscape:current-layer="layer1"
     showgrid="false"
     units="pt"
     inkscape:window-width="1920"
     inkscape:window-height="1001"
     inkscape:window-x="-9"
     inkscape:window-y="-9"
     inkscape:window-maximized="1"
     inkscape:pagecheckerboard="true"
     inkscape:showpageshadow="false"
     inkscape:object-paths="true"
     inkscape:snap-intersection-paths="true"
     inkscape:snap-smooth-nodes="true"
     inkscape:snap-midpoints="true"
     showguides="true"
     inkscape:snap-bbox="true"
     inkscape:bbox-nodes="true"
     inkscape:snap-nodes="false"
     inkscape:snap-global="true"
     inkscape:snap-others="false">
    <inkscape:grid
       type="xygrid"
       id="grid1378" />
    <sodipodi:guide
       position="0.97013831,21.607643"
       orientation="78.000048,0"
       id="guide1380"
       inkscape:locked="false" />
    <sodipodi:guide
       position="0.97013831,0.97013129"
       orientation="0,78.000005"
       id="guide1382"
       inkscape:locked="false" />
    <sodipodi:guide
       position="21.607639,0.97013129"
       orientation="-78.000048,0"
       id="guide1384"
       inkscape:locked="false" />
    <sodipodi:guide
       position="21.607639,21.607643"
       orientation="0,-78.000005"
       id="guide1386"
       inkscape:locked="false" />
  </sodipodi:namedview>
  <metadata
     id="metadata828">
    <rdf:RDF>
      <cc:Work
         rdf:about="">
        <dc:format>image/svg+xml</dc:format>
        <dc:type
           rdf:resource="http://purl.org/dc/dcmitype/StillImage" />
      </cc:Work>
    </rdf:RDF>
  </metadata>
  <g
     inkscape:label="Icon"
     inkscape:groupmode="layer"
     id="layer1"
     transform="translate(0,-274.42223)">
    <path
       id="path7264"
       style="color:#000000;display:inline;fill:#000000;stroke-width:1;stroke-linecap:round;stroke-linejoin:round;-inkscape-stroke:none"
       d="m 16.075148,279.20631 -1.333708,0.35956 c -0.548833,0.14706 -0.881719,0.71809 -0.734653,1.26693 l 0.18147,0.66786 c 0.147056,0.54882 0.718093,0.87901 1.266923,0.73195 l 1.336407,-0.35687 c 0.108679,-0.0296 0.19604,-0.11057 0.23409,-0.21655 0.3386,-0.95734 0.0018,-1.79066 -0.626715,-2.37125 -0.106668,-0.0986 -0.232975,-0.10601 -0.323814,-0.0816 z m -0.714414,6.5498 c 0.03654,0.13274 0.0238,0.27487 -0.03778,0.39802 l -1.030132,2.05757 c -0.03441,0.0688 -0.247572,0.18838 -0.296156,0.18349 -0.996298,-0.10026 -1.491087,-0.50787 -1.746571,-1.05305 -0.255484,-0.5452 -0.246251,-1.27661 -0.03036,-1.97864 0.106825,-0.34738 0.112317,-0.70187 -0.06611,-0.99169 -0.178435,-0.28981 -0.528024,-0.44592 -0.908028,-0.44592 H 8.8284625 v -0.34473 c -1.5e-6,-0.19485 0.1492,-0.34674 0.3440524,-0.34674 h 1.7263331 c 0.377434,0 0.690816,-0.31336 0.690803,-0.69081 v -1.03486 c 0,-0.28608 -0.112906,-0.55063 -0.315718,-0.73195 -0.152107,-0.13599 -0.36507,-0.21959 -0.586239,-0.21453 -0.07372,10e-4 -0.148386,0.0131 -0.221947,0.0358 -0.5847135,0.18032 -1.0077465,0.45089 -2.0143929,0.53834 -0.5463054,0.0474 -1.0044977,0.49455 -1.0044977,1.06319 -1.2e-5,0.475 0.3259979,0.87926 0.7650104,0.9991 -0.047675,0.1188 -0.074209,0.24773 -0.074207,0.3825 v 0.34473 h -1.729032 v -0.34473 c 7e-7,-0.12127 -0.021014,-0.23802 -0.060041,-0.34674 h 0.060041 c 0.1907528,7.2e-4 0.345988,-0.1533 0.346751,-0.34405 v -0.69081 c -4.2e-6,-0.56818 -0.4693716,-1.03552 -1.0375558,-1.03552 H 3.9914925 c -0.568182,0 -1.0348505,0.46734 -1.0348575,1.03552 -3.5e-6,0.5682 0.466665,1.03486 1.0348575,1.03486 H 5.373772 c 0.1948514,0 0.3440545,0.15189 0.344051,0.34674 v 0.43311 c -0.7706839,0.18429 -1.6298253,0.65143 -2.4299513,1.32898 -1.0496096,0.88881 -1.9814167,2.15921 -2.29435719,3.70228 -0.15823189,0.78024 0.51119759,1.44299 1.27231749,1.44299 l 0.272546,-0.004 c -0.1683522,-0.19485 -0.2593206,-0.45401 -0.216553,-0.73532 0.4124163,-2.71311 2.9903481,-4.32108 5.1580873,-4.42343 1.0838707,-0.0512 2.1189942,0.28623 2.6768627,1.132 0.557867,0.84576 0.577013,2.10921 -0.132225,3.75556 -0.031097,0.0722 -0.068642,0.13851 -0.1119859,0.19901 2.0111979,-0.008 4.0227719,-0.0104 6.0344079,-0.0104 -0.127242,-0.11292 -0.220911,-0.26486 -0.257027,-0.45132 -0.04042,-0.20873 -0.0614,-0.423 -0.0614,-0.6429 4e-6,-1.3919 0.852119,-2.58858 2.060267,-3.10188 l -1.539467,-3.48908 -0.526197,0.14031 c -0.254702,0.0683 -0.512229,0.0728 -0.756241,0.0243 l -0.107935,0.1592 c -0.05659,0.0829 -0.07432,0.18632 -0.04858,0.28335 l 0.188892,0.70563 -0.336631,0.0944 c -0.524008,0.14532 -0.834627,0.6994 -0.683384,1.22172 l 0.230044,0.78997 c 0.05347,0.18279 0.244795,0.2878 0.427704,0.23476 0.183127,-0.0535 0.288238,-0.24526 0.234766,-0.42837 l -0.22667,-0.78795 c -0.04663,-0.16105 0.03946,-0.31949 0.201034,-0.3643 l 0.33191,-0.0924 z m -1.978638,-4.75399 -0.374409,0.10117 c -0.548819,0.14706 -0.881715,0.7181 -0.734654,1.26692 0.04908,0.18484 0.238996,0.29461 0.423656,0.24489 0.184564,-0.0494 0.293986,-0.2392 0.24421,-0.42366 -0.05043,-0.18818 0.05668,-0.37255 0.244884,-0.42298 l 0.377109,-0.10117 z m 3.682708,2.08186 1.287835,2.91566 c 0.209447,-0.041 0.425799,-0.062 0.646953,-0.062 0.28267,0 0.556928,0.0354 0.819655,0.10117 0.02608,-0.22245 -4.5e-4,-0.45472 -0.08838,-0.67529 l -0.639533,-1.60355 c -0.219568,-0.55076 -0.761571,-0.88415 -1.324263,-0.86958 -0.157554,0.004 -0.316659,0.0356 -0.470879,0.0971 z m -14.0622928,6.76973 c -0.02473,0.16274 0.1046048,0.29075 0.2981782,0.29075 h 5.7652363 c 0.083334,0 0.2963468,-0.14056 0.3238138,-0.20441 0.6573495,-1.52589 0.5756614,-2.51245 0.1882169,-3.09984 -0.3632304,-0.55068 -1.0483204,-0.83145 -1.9793126,-0.82606 -1.9329142,0.0896 -4.2432185,1.51788 -4.5961326,3.83956 z m 15.9970808,-3.22532 c -1.483537,0 -2.68023,1.19603 -2.680234,2.67956 0,0.17572 0.01647,0.34698 0.04858,0.51271 0.02268,0.11697 0.143216,0.16309 0.288059,0.10182 l 4.416012,-1.86665 c 0.14492,-0.0612 0.195804,-0.17976 0.127504,-0.27793 -0.0912,-0.13106 -0.193004,-0.25177 -0.305599,-0.3643 -0.485155,-0.48516 -1.152546,-0.78525 -1.894313,-0.78525 z m -13.62582,0.75219 h 2.9345637 c 0.1907605,-7.6e-4 0.3460071,0.1533 0.3467511,0.34405 7.599e-4,0.19181 -0.1549357,0.3475 -0.3467511,0.34676 H 5.373772 c -0.1907617,-7.6e-4 -0.344797,-0.15599 -0.3440509,-0.34676 6.908e-4,-0.18971 0.1543427,-0.34331 0.3440509,-0.34405 z m -0.8641773,1.3816 h 3.798741 c 0.1910234,-7.5e-4 0.3463794,0.15371 0.3467511,0.34473 7.599e-4,0.19181 -0.1549357,0.3475 -0.3467511,0.34676 h -3.798741 c -0.1910243,-3.8e-4 -0.345474,-0.15573 -0.344728,-0.34676 3.455e-4,-0.19023 0.1544947,-0.34435 0.344728,-0.34473 z m 15.6024343,0.45403 c 0.296792,0.19995 0.493806,0.5388 0.493815,0.92016 7e-6,0.60826 -0.500789,1.10974 -1.109062,1.10974 -0.608272,0 -1.109069,-0.50148 -1.109063,-1.10974 3e-6,-0.0693 0.0057,-0.13707 0.01821,-0.20305 l -0.93906,0.39464 c 0.119723,1.05448 0.942107,1.89971 2.029908,1.89971 1.17001,0 2.110862,-0.94153 2.110862,-2.11154 -2e-6,-0.50991 -0.243804,-0.93586 -0.543063,-1.29997 z m -1.033506,0.92016 c -3e-6,0.23493 0.18333,0.41827 0.418259,0.41827 0.23493,0 0.417586,-0.18334 0.417585,-0.41827 -6e-6,-0.23493 -0.182655,-0.41758 -0.428716,-0.41758 -0.235463,0.0105 -0.407122,0.19 -0.407128,0.41758 z m -11.0966995,0.7016 -1.0125931,-6.9e-4 c -0.2006625,0.24603 -0.5044487,0.40457 -0.8432654,0.40882 -0.00315,4e-5 -0.00629,4e-5 -0.00944,0 -0.00204,10e-6 -0.00405,10e-6 -0.00607,0 -0.3448195,0 -0.6566169,-0.16016 -0.8608044,-0.41016 l -1.1232319,-7e-4 c 0.2930939,0.81181 1.0673321,1.3924 2.0299101,1.39104 0.9071789,0 1.5273521,-0.63365 1.825501,-1.38835 z"
       sodipodi:nodetypes="cccccccccccccsscscssscscsccccsccscccsssssssccsccccsscccsccccccccccccccccccccccccccscccsccssscscssscccccsccsccsccccccccccssccsscccscsccscccccccc" />
  </g>
</svg>
